# xmcd
#
# Track frame offsets: 
#        150
#        21850
#        43995
#        55825
#        79047
#        100350
#        123962
#        147065
#        161947
#        184732
#        213257
#        233022
#        250807
#        271155
#
# Disc length: 3831 seconds
#
# Revision: 2
# Processed by: cddbd v1.5.2PL0 Copyright (c) Steve Scherf et al.
# Submitted via: ExactAudioCopy v1.0b3
#
DISCID=be0ef50e
DTITLE=Various Artist - Musical Healing
DYEAR=2000
DGENRE=New Age
TTITLE0=David and Steve Gordon - Monet's Garden, Part II - Variations On
TTITLE0=Reverie By Claude Debussy
TTITLE1=David and Steve Gordon - Secret Fountain
TTITLE2=Gary Stadler with Stephannie - Ehsellyei
TTITLE3=Solaria - Twin Souls
TTITLE4=David and Steve Gordon - Sanctuary, Part I
TTITLE5=Sophia - Sweet Surrender
TTITLE6=David and Steve Gordon - Dusk
TTITLE7=Steve Gordon and Deborah Martin - Ancient Power
TTITLE8=David and Steve Gordon - Floating Meadow
TTITLE9=Zingaia - Breath Of Passion
TTITLE10=David and Steve Gordon - Healing Passage
TTITLE11=David and Steve Gordon - Waves Of Bliss, Part II
TTITLE12=Gary Stadler - Wings At Rest
TTITLE13=David and Steve Gordon - Healing Ocean
EXTD=YEAR: 2001
EXTT0=
EXTT1=
EXTT2=
EXTT3=
EXTT4=
EXTT5=
EXTT6=
EXTT7=
EXTT8=
EXTT9=
EXTT10=
EXTT11=
EXTT12=
EXTT13=
PLAYORDER=
